<?xml version="1.0" encoding="UTF-8"?>
<!DOCTYPE svg  PUBLIC '-//W3C//DTD SVG 1.1//EN'  'http://www.w3.org/Graphics/SVG/1.1/DTD/svg11.dtd'>
<svg width="800px" height="800px" fill="#000000" version="1.1" viewBox="0 0 512 512" xml:space="preserve" xmlns="http://www.w3.org/2000/svg">

	<path d="m411.78 192.47c-4.166 1.472-6.35 6.043-4.877 10.208 6.037 17.085 9.098 35.025 9.098 53.322 0 88.225-71.776 160-160 160s-160-71.775-160-160 71.776-160 160-160c37.952 0 74.749 13.522 103.61 38.076 3.365 2.861 8.414 2.455 11.277-0.91s2.456-8.414-0.91-11.277c-31.753-27.013-72.232-41.889-113.98-41.889-97.047 0-176 78.953-176 176s78.953 176 176 176 176-78.953 176-176c0-20.118-3.369-39.852-10.012-58.652-1.472-4.166-6.042-6.351-10.209-4.878z"/>
	<path d="m392.31 172.17c1.512 2.453 4.133 3.804 6.818 3.804 1.432 0 2.881-0.385 4.19-1.19 3.761-2.318 4.931-7.247 2.612-11.008-3.55-5.76-7.478-11.377-11.673-16.695-2.737-3.47-7.767-4.063-11.236-1.325-3.469 2.736-4.062 7.767-1.326 11.235 3.816 4.835 7.387 9.943 10.615 15.179z"/>
	<path d="m480 208h-13.393c-5.399-23.848-14.705-46.326-27.734-66.991l9.46-9.46c12.477-12.477 12.477-32.777 0-45.255l-22.627-22.628c-12.476-12.474-32.778-12.475-45.255 0l-9.46 9.461c-20.664-13.029-43.142-22.335-66.991-27.734v-13.393c0-17.645-14.355-32-32-32h-32c-17.645 0-32 14.355-32 32v13.393c-23.849 5.4-46.327 14.705-66.991 27.734l-9.46-9.461c-12.476-12.474-32.778-12.475-45.255 0l-22.627 22.629c-12.477 12.477-12.477 32.777 0 45.255l9.46 9.459c-13.029 20.666-22.335 43.144-27.734 66.991h-13.393c-17.645 0-32 14.355-32 32v32c0 17.645 14.355 32 32 32h13.393c5.399 23.848 14.705 46.325 27.734 66.99l-9.46 9.461c-12.477 12.477-12.477 32.777 0 45.255l22.627 22.628c12.476 12.475 32.777 12.478 45.255-1e-3l9.46-9.461c20.665 13.03 43.142 22.336 66.99 27.734v13.394c0 17.645 14.355 32 32 32h32c17.645 0 32-14.355 32-32v-13.394c23.847-5.398 46.325-14.704 66.99-27.733l9.46 9.461c12.476 12.475 32.778 12.477 45.255 0l22.627-22.629c12.477-12.477 12.477-32.777 0-45.255l-9.46-9.459c13.029-20.665 22.335-43.143 27.734-66.991h13.395c17.645 0 32-14.355 32-32v-32c0-17.645-14.355-32-32-32zm16 64c0 8.822-7.178 16-16 16h-19.883c-3.828 0-7.12 2.712-7.852 6.47-5.127 26.313-15.313 50.913-30.272 73.12-2.139 3.175-1.729 7.42 0.978 10.127l14.048 14.048c6.238 6.238 6.238 16.389 0 22.627l-22.627 22.628c-6.239 6.238-16.389 6.238-22.628 0l-14.048-14.049c-2.706-2.706-6.953-3.116-10.126-0.978-22.209 14.96-46.81 25.145-73.12 30.271-3.758 0.732-6.47 4.024-6.47 7.853v19.883c0 8.822-7.178 16-16 16h-32c-8.822 0-16-7.178-16-16v-19.884c0-3.828-2.712-7.12-6.47-7.853-26.311-5.126-50.912-15.312-73.119-30.271-1.361-0.917-2.918-1.365-4.467-1.365-2.064 0-4.113 0.797-5.66 2.344l-14.048 14.049c-6.239 6.238-16.389 6.238-22.628 0l-22.627-22.628c-6.238-6.238-6.238-16.389 0-22.627l14.049-14.049c2.707-2.707 3.117-6.952 0.978-10.127-14.959-22.207-25.145-46.808-30.272-73.119-0.732-3.758-4.024-6.47-7.852-6.47h-19.884c-8.822 0-16-7.178-16-16v-32c0-8.822 7.178-16 16-16h19.883c3.828 0 7.12-2.712 7.852-6.47 5.127-26.311 15.312-50.911 30.272-73.12 2.139-3.175 1.728-7.42-0.979-10.127l-14.048-14.048c-6.238-6.238-6.238-16.389 0-22.627l22.628-22.628c6.239-6.237 16.389-6.239 22.628 0l14.048 14.049c2.707 2.706 6.952 3.117 10.126 0.978 22.205-14.959 46.806-25.144 73.12-30.271 3.757-0.732 6.47-4.024 6.47-7.853v-19.883c0-8.822 7.178-16 16-16h32c8.822 0 16 7.178 16 16v19.883c0 3.828 2.712 7.12 6.47 7.853 26.313 5.128 50.914 15.313 73.12 30.271 3.174 2.139 7.419 1.729 10.126-0.978l14.048-14.049c6.239-6.237 16.389-6.239 22.628 0l22.627 22.628c6.238 6.238 6.238 16.389 0 22.627l-14.048 14.048c-2.707 2.707-3.117 6.952-0.978 10.127 14.96 22.207 25.145 46.809 30.271 73.12 0.732 3.758 4.024 6.47 7.853 6.47h19.883c8.822 0 16 7.178 16 16v32z"/>
	<path d="m210.86 294.88-29.809 7.741c-0.049 0.013-0.099 0.026-0.148 0.04-18.974 5.316-28.901 23.917-28.901 39.544v8.641c0 9.457 8.277 17.151 18.452 17.151l85.418-9e-3c0.062 1e-3 0.121 9e-3 0.183 9e-3s0.122-8e-3 0.184-9e-3l85.419-9e-3c10.174 0 18.451-7.694 18.451-17.151v-8.641c0-15.628-9.927-34.229-28.901-39.544-0.049-0.014-0.098-0.027-0.147-0.04l-29.808-7.741c-2.527-0.744-4.524-2.053-4.955-2.736l-0.02-16.214c0.025-0.03 0.051-0.057 0.076-0.086 10.221-12.217 15.85-28.045 15.85-44.57v-12.076c10.197-33.218 3.011-62.02-0.677-70.402-0.012-0.028-0.028-0.053-0.041-0.081-0.071-0.157-0.15-0.309-0.23-0.459-0.046-0.087-0.09-0.175-0.14-0.26-0.077-0.133-0.162-0.26-0.246-0.388-0.064-0.098-0.127-0.197-0.195-0.291-0.073-0.101-0.153-0.196-0.23-0.293-0.088-0.111-0.176-0.223-0.269-0.328-0.066-0.075-0.138-0.144-0.207-0.215-0.112-0.117-0.223-0.233-0.341-0.342-0.065-0.06-0.135-0.115-0.201-0.172-0.127-0.11-0.254-0.22-0.388-0.321-0.077-0.059-0.158-0.111-0.237-0.166-0.128-0.09-0.255-0.181-0.388-0.263-0.103-0.064-0.211-0.12-0.317-0.179-0.114-0.063-0.226-0.13-0.343-0.188-0.132-0.065-0.268-0.122-0.404-0.18-0.097-0.042-0.193-0.087-0.292-0.125-0.148-0.057-0.301-0.104-0.453-0.152-0.092-0.029-0.183-0.062-0.276-0.088-0.148-0.041-0.298-0.071-0.449-0.104-0.105-0.022-0.208-0.048-0.314-0.066-0.132-0.022-0.266-0.037-0.399-0.053-0.131-0.016-0.261-0.034-0.393-0.043-0.109-8e-3 -0.218-8e-3 -0.328-0.011-0.161-5e-3 -0.321-9e-3 -0.483-4e-3 -0.089 2e-3 -0.179 0.011-0.268 0.017-0.18 0.011-0.361 0.026-0.541 0.05-0.027 3e-3 -0.054 3e-3 -0.081 7e-3 -7.709 1.103-17.114-1.15-27.07-3.533-17.611-4.218-37.474-8.962-54.875 3.584-16.826 1.446-28.756 15.586-28.756 34.698 0 13.898 6.449 38.721 7.927 44.229v6.681c0 17.249 5.969 33.193 15.538 45.087l-0.022 17.32c-0.431 0.681-2.428 1.99-4.955 2.734zm5.438-67.876c0-7.952 3.365-19.58 5.88-26.936 36.247 0.832 63.597 9.537 74.026 13.396v4.44 0.073 13.276c0 14.103-5.303 27.023-13.576 35.964-0.022 0.022-0.042 0.045-0.063 0.067-7.112 7.656-16.405 12.379-26.42 12.379-21.227 0-39.846-23.331-39.846-49.928v-2.731zm15.52 61.82c7.4 4.362 15.669 6.84 24.326 6.84 8.498 0 16.699-2.2 24.15-6.364l4e-3 2.932c0 3.967 1.43 7.293 3.65 10.013l-27.858 16.442-27.743-16.646c2.115-2.677 3.467-5.927 3.467-9.781l4e-3 -3.436zm-61.365 63.173c-1.634 0-2.451-0.932-2.451-1.151v-8.641c0-9.578 5.891-20.926 17.152-24.119l27.103-7.038 35.799 21.479v19.461l-77.603 9e-3zm173.66-9.811v8.641c0 0.22-0.817 1.151-2.452 1.151l-77.602 8e-3v-19.422l36.279-21.412 26.626 6.915c11.26 3.195 17.149 14.541 17.149 24.119zm-120.12-182.19c0.025 0 0.049-3e-3 0.074-4e-3 0.239-2e-3 0.477-0.013 0.715-0.036 0.078-7e-3 0.153-0.022 0.23-0.032 0.183-0.023 0.365-0.047 0.547-0.083 0.098-0.019 0.193-0.046 0.29-0.07 0.157-0.037 0.313-0.073 0.469-0.12 0.106-0.032 0.208-0.072 0.313-0.109 0.142-0.049 0.283-0.097 0.423-0.155 0.111-0.046 0.217-0.1 0.325-0.15 0.128-0.06 0.256-0.117 0.381-0.184 0.122-0.065 0.238-0.139 0.355-0.21 0.105-0.063 0.213-0.123 0.316-0.192 0.149-0.1 0.29-0.209 0.432-0.318 0.063-0.049 0.13-0.091 0.192-0.142 11.771-9.619 27.047-5.959 43.221-2.089 8.705 2.085 17.645 4.22 26.325 4.252 2.086 7.707 4.137 21.364 1.934 37.631-13.021-4.743-43.573-13.99-83.926-13.99-0.017 0-0.034 2e-3 -0.051 2e-3 -0.197 1e-3 -0.393 0.014-0.589 0.03-0.074 6e-3 -0.15 8e-3 -0.224 0.016-0.166 0.018-0.33 0.047-0.494 0.075-0.102 0.018-0.205 0.031-0.305 0.052-0.121 0.026-0.239 0.061-0.358 0.092-0.137 0.036-0.275 0.068-0.41 0.11-0.078 0.025-0.154 0.058-0.231 0.085-0.167 0.059-0.335 0.117-0.497 0.187-0.061 0.026-0.12 0.059-0.18 0.087-0.171 0.079-0.342 0.158-0.506 0.248-0.094 0.051-0.183 0.111-0.274 0.167-0.125 0.075-0.252 0.147-0.372 0.229-0.152 0.103-0.297 0.217-0.442 0.331-0.054 0.042-0.111 0.08-0.163 0.124-0.169 0.139-0.33 0.289-0.487 0.443-0.025 0.024-0.053 0.047-0.078 0.072-0.142 0.142-0.275 0.294-0.407 0.448-0.037 0.043-0.078 0.083-0.114 0.127-0.102 0.124-0.195 0.256-0.29 0.388-0.061 0.083-0.125 0.164-0.182 0.25-0.066 0.1-0.125 0.205-0.187 0.308-0.077 0.127-0.156 0.254-0.226 0.387-0.042 0.079-0.078 0.163-0.117 0.244-0.052 0.105-0.106 0.209-0.153 0.318-0.553-3.774-0.901-7.241-0.901-9.988-1e-3 -8.687 4.09-18.831 15.622-18.831z"/>

</svg>
