<?xml version="1.0" standalone="no"?>
<!DOCTYPE svg PUBLIC "-//W3C//DTD SVG 20010904//EN"
 "http://www.w3.org/TR/2001/REC-SVG-20010904/DTD/svg10.dtd">
<svg version="1.0" xmlns="http://www.w3.org/2000/svg"
 width="56.000000pt" height="56.000000pt" viewBox="0 0 56.000000 56.000000"
 preserveAspectRatio="xMidYMid meet">

<g transform="translate(0.000000,56.000000) scale(0.100000,-0.100000)"
fill="#000000" stroke="none">
<path d="M0 280 l0 -280 280 0 280 0 0 280 0 280 -280 0 -280 0 0 -280z m193
35 c-3 -108 -5 -122 -24 -137 -53 -44 -109 -7 -109 73 0 49 1 50 28 47 24 -3
27 -7 30 -46 6 -85 22 -28 22 79 l0 110 28 -3 27 -3 -2 -120z m137 98 c19 -25
21 -38 18 -119 -3 -104 -19 -134 -70 -134 -54 0 -68 28 -68 140 0 87 3 103 20
120 29 29 74 26 100 -7z m151 6 c17 -17 20 -29 15 -57 -7 -43 -7 -41 0 -109 5
-43 3 -54 -16 -73 -17 -17 -31 -20 -68 -18 l-47 3 -3 124 c-1 69 0 131 2 138
9 22 92 17 117 -8z"/>
<path d="M270 294 c0 -54 4 -83 10 -79 6 3 10 42 10 86 0 46 -4 79 -10 79 -6
0 -10 -35 -10 -86z"/>
<path d="M420 359 c0 -17 4 -28 10 -24 6 3 10 17 10 31 0 13 -4 24 -10 24 -5
0 -10 -14 -10 -31z"/>
<path d="M420 249 c0 -24 4 -38 10 -34 6 3 10 22 10 41 0 19 -4 34 -10 34 -5
0 -10 -18 -10 -41z"/>
</g>
</svg>
